<?xml version="1.0" standalone="no"?>
<!DOCTYPE svg PUBLIC "-//W3C//DTD SVG 20010904//EN"
 "http://www.w3.org/TR/2001/REC-SVG-20010904/DTD/svg10.dtd">
<svg version="1.0" xmlns="http://www.w3.org/2000/svg"
 width="500.000000pt" height="500.000000pt" viewBox="0 0 500.000000 500.000000"
 preserveAspectRatio="xMidYMid meet">
<metadata>
Created by potrace 1.14, written by Peter Selinger 2001-2017
</metadata>
<g transform="translate(0.000000,500.000000) scale(0.100000,-0.100000)"
fill="#000000" stroke="none">
<path d="M0 2500 l0 -2500 2500 0 2500 0 0 2500 0 2500 -2500 0 -2500 0 0
-2500z m1725 1000 c488 -1410 598 -1726 615 -1767 24 -56 96 -132 145 -154 39
-18 31 -19 -500 -18 -498 0 -538 1 -510 16 17 8 41 25 54 37 33 29 71 114 71
157 0 38 -58 214 -269 822 -129 373 -141 401 -170 417 -30 15 -84 12 -111 -7
-22 -16 -23 -16 -16 2 4 11 104 288 223 617 119 329 217 597 218 595 1 -1 114
-324 250 -717z m2010 690 c83 -11 222 -30 310 -42 116 -16 210 -22 345 -22
207 0 277 12 381 65 l62 31 -6 -149 c-7 -210 -41 -316 -153 -484 -51 -76 -178
-215 -253 -278 l-48 -40 5 49 c4 44 1 52 -24 78 -28 28 -34 29 -154 36 -132 7
-138 8 -460 57 -144 21 -260 32 -387 36 -217 7 -303 -4 -398 -52 l-65 -33 0
328 0 327 38 26 c56 39 119 63 197 76 39 6 81 13 95 15 56 10 375 -5 515 -24z
m-514 -1737 c-4 -16 -4 -43 1 -60 14 -54 44 -66 192 -75 72 -5 255 -26 406
-49 464 -68 690 -65 841 12 32 16 61 29 64 29 3 0 5 -143 5 -318 l0 -318 -27
-26 c-66 -61 -172 -95 -339 -107 -136 -11 -240 -2 -632 53 -354 50 -469 60
-612 53 -134 -7 -216 -24 -291 -62 l-46 -24 -6 55 c-3 30 -1 96 4 146 23 223
114 396 319 601 64 64 119 117 123 117 3 0 2 -12 -2 -27z m-2540 -537 c21
-153 132 -286 281 -337 53 -18 52 -18 -362 -18 l-415 0 57 18 c71 23 131 58
207 121 65 54 166 182 195 248 11 23 21 40 23 38 2 -2 8 -34 14 -70z m1049
-951 l0 -135 -40 0 -40 0 0 135 0 135 40 0 40 0 0 -135z m350 110 c0 -22 -4
-25 -40 -25 -36 0 -40 3 -40 25 0 23 4 25 40 25 36 0 40 -2 40 -25z m1180 0
c0 -22 -4 -25 -40 -25 -36 0 -40 3 -40 25 0 23 4 25 40 25 36 0 40 -2 40 -25z
m120 -85 c0 -91 3 -110 15 -110 9 0 15 -9 15 -25 0 -21 -5 -25 -32 -25 -19 0
-41 9 -55 22 -21 20 -23 29 -23 135 l0 113 40 0 40 0 0 -110z m138 83 c3 -21
-1 -23 -42 -23 -43 0 -46 2 -46 26 0 23 3 25 43 22 35 -2 43 -7 45 -25z
m-2067 -121 l47 -117 -41 -3 c-29 -2 -43 1 -49 12 -6 10 -23 16 -43 16 -19 0
-35 2 -35 4 0 18 15 36 31 36 25 0 24 14 -6 90 -14 35 -25 67 -25 72 0 4 17 8
38 8 l37 0 46 -118z m1363 93 c-14 -21 -24 -25 -65 -25 -46 0 -49 2 -49 25 0
24 2 25 65 25 l65 0 -16 -25z m96 4 c0 -11 -37 -65 -81 -120 -69 -84 -86 -99
-110 -99 -48 0 -36 33 51 141 70 85 85 99 110 99 24 0 30 -4 30 -21z m-1570
-52 c10 -32 9 -46 -10 -102 l-22 -65 -39 0 c-21 0 -39 2 -39 4 0 2 6 19 14 37
7 19 26 67 41 107 15 41 31 70 35 65 4 -4 13 -25 20 -46z m300 2 c0 -12 -8
-23 -20 -26 -16 -4 -20 -14 -20 -49 0 -32 4 -44 14 -44 22 0 30 -19 16 -35
-18 -22 -60 -18 -87 7 -19 17 -23 32 -23 76 0 71 17 92 77 92 37 0 43 -3 43
-21z m210 -74 l0 -95 -40 0 -40 0 0 95 0 95 40 0 40 0 0 -95z m107 73 c13 -12
23 -32 23 -45 0 -21 -5 -23 -45 -23 -38 0 -45 3 -45 20 0 11 -7 20 -15 20 -18
0 -20 21 -3 38 19 19 59 14 85 -10z m123 -73 l0 -95 -40 0 -40 0 0 95 0 95 40
0 40 0 0 -95z m229 69 c17 -21 21 -41 21 -95 l0 -69 -40 0 -40 0 0 70 0 70
-54 0 c-58 0 -76 11 -56 35 9 11 33 15 80 15 62 0 71 -2 89 -26z m131 -69 l0
-95 -40 0 -40 0 0 95 0 95 40 0 40 0 0 -95z m112 78 c14 -13 18 -31 18 -95 l0
-78 -40 0 -40 0 0 69 c0 61 -2 69 -21 74 -17 5 -19 9 -9 26 13 26 65 28 92 4z
m565 -5 c20 -19 23 -31 23 -95 l0 -73 -40 0 -40 0 0 70 0 70 -55 0 c-47 0 -55
3 -55 18 0 29 8 32 79 32 53 0 69 -4 88 -22z m143 -73 l0 -95 -40 0 -40 0 0
95 0 95 40 0 40 0 0 -95z m260 0 l0 -95 -45 0 -45 0 0 95 0 95 45 0 45 0 0
-95z m110 0 c0 -82 -2 -95 -17 -95 -9 0 -27 10 -40 22 -48 45 -20 168 39 168
16 0 18 -10 18 -95z m107 73 c35 -33 29 -48 -17 -48 -22 0 -40 4 -40 9 0 5 -9
11 -20 14 -12 3 -20 14 -20 26 0 18 6 21 37 21 24 0 45 -8 60 -22z m-1507 -73
c0 -8 -9 -15 -20 -15 -11 0 -20 -7 -20 -15 0 -9 9 -15 21 -15 15 0 20 -5 17
-22 -2 -19 -10 -24 -45 -26 -33 -2 -44 1 -57 20 -20 29 -20 47 1 70 21 23 103
26 103 3z m820 0 c0 -8 -9 -15 -20 -15 -11 0 -20 -7 -20 -15 0 -8 9 -15 20
-15 22 0 26 -20 8 -38 -17 -17 -68 -15 -90 5 -20 18 -24 63 -6 81 18 18 108
16 108 -3z m710 -37 c0 -27 -43 -58 -82 -58 -32 0 -38 3 -38 21 0 12 8 23 20
26 11 3 20 9 20 14 0 5 18 9 40 9 24 0 40 -5 40 -12z m-860 -33 c0 -24 -2 -25
-66 -25 -66 0 -69 2 -41 38 5 6 31 12 58 12 46 0 49 -2 49 -25z"/>
</g>
</svg>
